HIERARCHY
ROOT Hips
{
	OFFSET -0.001795 -0.223333 0.028219
	CHANNELS 6 Xposition Yposition Zposition Zrotation Yrotation Xrotation 
	JOINT LeftUpLeg
	{
		OFFSET 0.069520 -0.091406 -0.006815
		CHANNELS 3 Zrotation Yrotation Xrotation
		JOINT LeftLeg
		{
			OFFSET 0.034277 -0.375199 -0.004496
			CHANNELS 3 Zrotation Yrotation Xrotation
			JOINT LeftFoot
			{
				OFFSET -0.013596 -0.397961 -0.043693
				CHANNELS 3 Zrotation Yrotation Xrotation
				JOINT LeftToe
				{
					OFFSET 0.026358 -0.055791 0.119288
					CHANNELS 3 Zrotation Yrotation Xrotation
					End Site
					{
						OFFSET 0.000000 0.000000 0.000000
					}
				}
			}
		}
	}
	JOINT RightUpLeg
	{
		OFFSET -0.067670 -0.090522 -0.004320
		CHANNELS 3 Zrotation Yrotation Xrotation
		JOINT RightLeg
		{
			OFFSET -0.038290 -0.382569 -0.008850
			CHANNELS 3 Zrotation Yrotation Xrotation
			JOINT RightFoot
			{
				OFFSET 0.015774 -0.398415 -0.042312
				CHANNELS 3 Zrotation Yrotation Xrotation
				JOINT RightToe
				{
					OFFSET -0.025372 -0.048144 0.123348
					CHANNELS 3 Zrotation Yrotation Xrotation
					End Site
					{
						OFFSET 0.000000 0.000000 0.000000
					}
				}
			}
		}
	}
	JOINT Spine
	{
		OFFSET -0.002533 0.108963 -0.026696
		CHANNELS 3 Zrotation Yrotation Xrotation
		JOINT Spine1
		{
			OFFSET 0.005487 0.135180 0.001092
			CHANNELS 3 Zrotation Yrotation Xrotation
			JOINT Spine2
			{
				OFFSET 0.001457 0.052922 0.025425
				CHANNELS 3 Zrotation Yrotation Xrotation
				JOINT Neck
				{
					OFFSET -0.002778 0.213870 -0.042857
					CHANNELS 3 Zrotation Yrotation Xrotation
					JOINT Head
					{
						OFFSET 0.005152 0.064970 0.051349
						CHANNELS 3 Zrotation Yrotation Xrotation
						End Site
						{
							OFFSET 0.000000 0.000000 0.000000
						}
					}
				}
				JOINT LeftShoulder
				{
					OFFSET 0.078845 0.121749 -0.034090
					CHANNELS 3 Zrotation Yrotation Xrotation
					JOINT LeftArm
					{
						OFFSET 0.090977 0.030469 -0.008868
						CHANNELS 3 Zrotation Yrotation Xrotation
						JOINT LeftForeArm
						{
							OFFSET 0.259612 -0.012772 -0.027456
							CHANNELS 3 Zrotation Yrotation Xrotation
							JOINT LeftHand
							{
								OFFSET 0.249234 0.008986 -0.001171
								CHANNELS 3 Zrotation Yrotation Xrotation
								End Site
								{
									OFFSET 0.000000 0.000000 0.000000
								}
							}
						}
					}
				}
				JOINT RightShoulder
				{
					OFFSET -0.081759 0.118833 -0.038615
					CHANNELS 3 Zrotation Yrotation Xrotation
					JOINT RightArm
					{
						OFFSET -0.096012 0.032551 -0.009143
						CHANNELS 3 Zrotation Yrotation Xrotation
						JOINT RightForeArm
						{
							OFFSET -0.253742 -0.013329 -0.021401
							CHANNELS 3 Zrotation Yrotation Xrotation
							JOINT RightHand
							{
								OFFSET -0.255298 0.007772 -0.005559
								CHANNELS 3 Zrotation Yrotation Xrotation
								End Site
								{
									OFFSET 0.000000 0.000000 0.000000
								}
							}
						}
					}
				}
			}
		}
	}
}
MOTION
Frames: 7
Frame Time: 0.050000
0.000000 0.941368 0.000000 -2.208025 0.194442 0.491237 4.671518 -0.217733 -3.082635 -3.224360 0.326869 4.102105 3.163218 8.426994 6.163965 0.000000 0.000000 0.000000 -2.959663 0.045771 0.323372 1.705754 0.227687 16.730000 -2.358149 -8.976658 10.087829 0.000000 0.000000 0.000000 -5.330812 0.103758 11.326104 4.080841 -0.378019 -24.086705 -0.531868 0.872616 27.988342 0.924281 0.882745 -21.342205 0.000000 0.000000 0.000000 -27.785787 2.154318 -3.444329 -46.080318 -7.887201 -4.886815 -7.847016 -27.789486 3.378241 0.000000 0.000000 0.000000 19.239655 2.828341 0.873774 54.388880 5.097689 -5.761007 1.145869 25.134811 1.464319 0.000000 0.000000 0.000000 
0.010979 0.939338 0.017575 -2.809037 1.041351 0.761977 4.184783 -0.143857 -1.407063 -2.370683 0.218237 2.520566 3.046357 7.805464 4.523048 0.000000 0.000000 0.000000 -2.892999 0.226994 -2.123616 2.547381 0.055490 23.325758 -3.118050 -10.487678 10.629414 0.000000 0.000000 0.000000 -5.322277 0.093418 11.519534 4.264933 -0.357195 -24.851014 -0.969178 0.571759 29.408743 0.704207 1.166243 -23.203077 0.000000 0.000000 0.000000 -27.334065 2.440309 -3.601278 -46.328290 -8.554171 -4.798005 -6.264634 -27.823623 3.010266 0.000000 0.000000 0.000000 20.423711 1.413734 0.208272 53.605740 4.916663 -6.029296 1.414627 26.896365 1.726791 0.000000 0.000000 0.000000 
0.020208 0.939932 0.035520 -2.619239 0.776995 -0.039507 3.771937 -0.076062 -0.398096 -3.090864 0.298342 4.498315 3.192030 7.943616 4.083021 0.000000 0.000000 0.000000 -3.485835 0.599325 -7.489613 4.210803 -0.501431 35.020994 -4.846800 -14.418931 15.666038 0.000000 0.000000 0.000000 -6.455227 0.209429 11.728780 4.420789 -0.547842 -22.597548 -0.981109 -0.427893 27.911417 -0.280473 1.460446 -20.424701 0.000000 0.000000 0.000000 -27.924762 1.880754 -2.926332 -44.578697 -9.029678 -4.478186 -5.792869 -26.916982 2.798480 0.000000 0.000000 0.000000 18.854401 3.773027 1.158360 54.551545 4.042361 -6.182340 0.696842 27.726194 1.505737 0.000000 0.000000 0.000000 
0.027124 0.940176 0.054393 -3.085784 1.507842 -0.843457 4.022674 0.039110 1.801139 -3.185577 0.306679 4.220762 2.856309 7.173719 3.569567 0.000000 0.000000 0.000000 -3.583199 0.801524 -10.735590 4.963179 -1.060108 40.643274 -5.561359 -16.002684 21.523494 0.000000 0.000000 0.000000 -7.250838 0.300737 13.827967 5.293513 -0.700243 -23.515605 -0.733483 -2.333781 28.150814 -0.784409 1.593590 -22.094681 0.000000 0.000000 0.000000 -28.592436 2.087284 -2.569689 -43.451344 -9.325198 -4.483077 -4.800448 -27.250555 2.656851 0.000000 0.000000 0.000000 18.139915 3.784883 0.816902 53.542939 2.755436 -6.620210 2.274061 29.848406 1.932321 0.000000 0.000000 0.000000 
0.032124 0.941880 0.074766 -3.920963 1.603704 -1.274098 4.614190 0.122892 3.932193 -3.020569 0.288235 3.593553 2.695278 6.948026 3.822160 0.000000 0.000000 0.000000 -2.873849 1.082871 -13.876162 6.271552 -1.772778 41.299509 -7.700290 -19.166175 22.388403 0.000000 0.000000 0.000000 -7.025320 0.274411 15.153203 7.026874 -1.188575 -22.977496 -1.983759 -2.399842 27.607630 -0.849541 1.686478 -23.020712 0.000000 0.000000 0.000000 -28.060962 2.033718 -2.523205 -42.659118 -9.971967 -4.138988 -3.920414 -26.589558 2.349638 0.000000 0.000000 0.000000 17.355121 3.431928 0.632417 54.050731 2.309222 -6.780293 2.048385 31.557736 1.999039 0.000000 0.000000 0.000000 
0.035624 0.943311 0.096916 -4.571394 1.282505 -1.220168 5.247104 0.197538 6.447727 -3.219188 0.332121 1.650374 2.584711 6.960559 4.569487 0.000000 0.000000 0.000000 -1.723501 1.445345 -16.682585 6.288765 -1.587296 37.155328 -6.680391 -17.401391 15.299519 0.000000 0.000000 0.000000 -6.548881 0.224685 16.204399 7.132039 -1.122349 -24.123713 -1.974342 -3.185205 28.229159 -0.759997 1.509343 -24.323173 0.000000 0.000000 0.000000 -27.496967 2.086328 -2.096672 -42.538012 -10.247055 -4.228077 -3.219312 -26.849892 2.271901 0.000000 0.000000 0.000000 16.413318 3.543231 0.529599 54.528743 1.753005 -7.126975 1.801781 33.068662 1.987567 0.000000 0.000000 0.000000 
0.038281 0.942869 0.121134 -5.088230 1.034385 -1.051281 5.038016 0.302026 8.530639 -2.129567 0.220220 0.498218 2.699054 7.243745 4.838663 0.000000 0.000000 0.000000 -0.682099 1.821057 -19.192775 5.881759 -1.200693 30.748598 -5.063484 -14.152873 10.565967 0.000000 0.000000 0.000000 -5.922737 0.142715 16.994817 7.837663 -1.288205 -24.271940 -2.473032 -3.063842 27.994538 -0.523490 1.390265 -24.772525 0.000000 0.000000 0.000000 -26.373236 2.083454 -2.030845 -42.318116 -10.482606 -4.085214 -3.151256 -26.890162 2.239734 0.000000 0.000000 0.000000 16.387093 3.385687 0.440581 54.826462 1.722944 -7.155753 1.779286 34.147058 2.065991 0.000000 0.000000 0.000000 
